<svg width="188" height="40" viewBox="0 0 188 40" fill="none" xmlns="http://www.w3.org/2000/svg">
<g clip-path="url(#clip0_3021_25532)">
<path d="M60.4442 17.6943L54.4481 4.19989H51.6656V21.5611H54.5461V10.6924L59.4709 21.5611H61.3651L66.3161 10.6401V21.5611H69.1966V4.19989H66.4402L60.4442 17.6943Z" fill="white"/>
<path d="M82.3775 9.66689C81.4304 9.14436 80.32 8.87656 79.0398 8.87656C77.7596 8.87656 76.6492 9.13782 75.7152 9.66689C74.7812 10.1894 74.0562 10.934 73.5336 11.8942C73.0176 12.8543 72.7563 13.9974 72.7563 15.3299C72.7563 16.6623 73.0111 17.8119 73.5336 18.7786C74.0496 19.7453 74.7746 20.4964 75.7152 21.0189C76.6492 21.5415 77.7596 21.8093 79.0398 21.8093C80.32 21.8093 81.4304 21.548 82.3775 21.0189C83.3246 20.4964 84.0496 19.7453 84.5722 18.7786C85.0882 17.8119 85.3494 16.6623 85.3494 15.3299C85.3494 13.9974 85.0882 12.8543 84.5722 11.8942C84.0561 10.934 83.3246 10.1894 82.3775 9.66689ZM81.3586 18.4193C80.7838 19.0986 80.013 19.4383 79.0464 19.4383C78.0797 19.4383 77.3089 19.0986 76.7341 18.4193C76.1594 17.74 75.872 16.708 75.872 15.3299C75.872 13.9517 76.1594 12.9262 76.7341 12.2534C77.3089 11.5807 78.0797 11.2476 79.0464 11.2476C80.013 11.2476 80.7838 11.5872 81.3586 12.2534C81.9334 12.9262 82.2207 13.9517 82.2207 15.3299C82.2207 16.708 81.9334 17.74 81.3586 18.4193Z" fill="white"/>
<path d="M98.6218 9.66689C97.7988 9.14436 96.8387 8.87656 95.7414 8.87656C94.7093 8.87656 93.7949 9.12476 93.0111 9.6277C92.4429 9.98694 92.0118 10.4442 91.7048 10.9928V3.43567H88.6284V21.5611H91.6786V19.595C91.9726 20.1698 92.4037 20.6532 92.985 21.032C93.7753 21.548 94.6898 21.8093 95.7414 21.8093C96.793 21.8093 97.7792 21.548 98.6088 21.032C99.4383 20.516 100.085 19.7779 100.542 18.8178C100.999 17.8576 101.228 16.7015 101.228 15.356C101.228 14.0105 100.999 12.8543 100.542 11.8942C100.085 10.934 99.4448 10.1894 98.6218 9.66689ZM97.2306 18.4324C96.6297 19.1052 95.8459 19.4383 94.8792 19.4383C93.9125 19.4383 93.1287 19.0986 92.5408 18.4193C91.9464 17.74 91.6525 16.708 91.6525 15.3299C91.6525 13.9517 91.9464 12.9262 92.5408 12.2534C93.1287 11.5807 93.9125 11.2476 94.8792 11.2476C95.8459 11.2476 96.6297 11.5872 97.2306 12.2665C97.8315 12.9458 98.132 13.9778 98.132 15.356C98.132 16.7342 97.8315 17.7596 97.2306 18.4324Z" fill="white"/>
<path d="M107.583 9.12476H104.507V21.5611H107.583V9.12476Z" fill="white"/>
<path d="M107.753 3.78186H104.331V6.78643H107.753V3.78186Z" fill="white"/>
<path d="M114.624 3.43567H111.548V21.5611H114.624V3.43567Z" fill="white"/>
<path d="M121.666 9.12476H118.589V21.5611H121.666V9.12476Z" fill="white"/>
<path d="M121.835 3.78186H118.413V6.78643H121.835V3.78186Z" fill="white"/>
<path d="M135.702 11.143V9.12476H125.14V11.4435H132.267L125.14 19.5428V21.5611H135.97V19.2489H128.563L135.702 11.143Z" fill="white"/>
<path d="M148.021 11.1953C147.727 10.5748 147.27 10.0588 146.649 9.65383C145.852 9.13782 144.931 8.87656 143.88 8.87656C142.828 8.87656 141.842 9.13782 141.026 9.65383C140.203 10.1698 139.562 10.9079 139.105 11.8681C138.648 12.8282 138.413 13.9843 138.413 15.3299C138.413 16.6754 138.641 17.8315 139.105 18.8047C139.562 19.7714 140.203 20.516 141.026 21.032C141.849 21.548 142.796 21.8093 143.88 21.8093C144.899 21.8093 145.807 21.5545 146.61 21.0451C147.191 20.6793 147.623 20.2221 147.923 19.6734L147.943 21.5611H150.993V12.2273C150.993 11.7178 151.012 11.2018 151.052 10.6793C151.091 10.1568 151.137 9.63423 151.189 9.12476H148.236L148.021 11.1953ZM147.08 18.4193C146.493 19.0986 145.709 19.4383 144.742 19.4383C143.775 19.4383 142.972 19.0986 142.391 18.4193C141.809 17.74 141.515 16.708 141.515 15.3299C141.515 13.9517 141.809 12.9262 142.404 12.2534C142.998 11.5807 143.775 11.2476 144.742 11.2476C145.709 11.2476 146.493 11.5872 147.08 12.2534C147.675 12.9262 147.969 13.9517 147.969 15.3299C147.969 16.708 147.675 17.74 147.08 18.4193Z" fill="white"/>
<path d="M164.043 18.1842C163.586 18.5957 163.076 18.8962 162.528 19.0986C161.979 19.2946 161.45 19.3926 160.941 19.3926C159.843 19.3926 158.981 19.0398 158.367 18.3344C157.753 17.629 157.446 16.6166 157.446 15.3037C157.446 13.9909 157.753 12.9915 158.367 12.2992C158.981 11.6068 159.843 11.2672 160.941 11.2672C161.463 11.2672 162.005 11.3717 162.554 11.5741C163.103 11.7766 163.599 12.0836 164.043 12.4951L164.977 10.3527C164.487 9.8759 163.847 9.51013 163.07 9.25539C162.293 9.00066 161.489 8.87656 160.666 8.87656C159.386 8.87656 158.269 9.13129 157.315 9.64076C156.362 10.1502 155.617 10.8818 155.088 11.8289C154.553 12.7825 154.285 13.9321 154.285 15.2776C154.285 16.6231 154.546 17.7858 155.075 18.759C155.598 19.7387 156.342 20.4899 157.302 21.0124C158.263 21.5349 159.386 21.8027 160.666 21.8027C161.47 21.8027 162.26 21.6721 163.044 21.4108C163.821 21.1496 164.468 20.7773 164.977 20.3005L164.043 18.1842Z" fill="white"/>
<path d="M168.054 22.1489C168.054 23.0046 167.884 23.612 167.551 23.9713C167.217 24.3305 166.747 24.5134 166.159 24.5134C165.931 24.5134 165.689 24.4873 165.447 24.4415C165.199 24.3958 164.971 24.337 164.755 24.2717V26.708C165.036 26.8256 165.356 26.904 165.728 26.9562C166.101 27.002 166.44 27.0281 166.747 27.0281C168.256 27.0281 169.366 26.6297 170.072 25.8328C170.777 25.0359 171.13 23.8668 171.13 22.3253V9.12476H168.054V22.1489Z" fill="white"/>
<path d="M171.28 3.78186H167.858V6.78643H171.28V3.78186Z" fill="white"/>
<path d="M184.18 9.12476L183.965 11.1953C183.671 10.5748 183.214 10.0588 182.593 9.65383C181.796 9.13782 180.875 8.87656 179.824 8.87656C178.772 8.87656 177.786 9.13782 176.969 9.65383C176.146 10.1698 175.506 10.9079 175.049 11.8681C174.592 12.8282 174.357 13.9843 174.357 15.3299C174.357 16.6754 174.585 17.8315 175.049 18.8047C175.506 19.7714 176.146 20.516 176.969 21.032C177.792 21.548 178.739 21.8093 179.824 21.8093C180.843 21.8093 181.75 21.5545 182.554 21.0451C183.135 20.6793 183.566 20.2221 183.867 19.6734L183.886 21.5611H186.937V12.2273C186.937 11.7178 186.956 11.2018 186.995 10.6793C187.035 10.1568 187.08 9.63423 187.133 9.12476H184.18ZM183.024 18.4193C182.436 19.0986 181.653 19.4383 180.686 19.4383C179.719 19.4383 178.916 19.0986 178.334 18.4193C177.753 17.74 177.459 16.708 177.459 15.3299C177.459 13.9517 177.753 12.9262 178.347 12.2534C178.942 11.5807 179.719 11.2476 180.686 11.2476C181.653 11.2476 182.436 11.5872 183.024 12.2534C183.619 12.9262 183.912 13.9517 183.912 15.3299C183.912 16.708 183.619 17.74 183.024 18.4193Z" fill="white"/>
<path d="M51.7113 36.4076V26.2443H56.3945C57.5114 26.2443 58.3671 26.4794 58.9745 26.9497C59.582 27.42 59.8824 28.0666 59.8824 28.8831C59.8824 29.4905 59.6995 30 59.3403 30.4246C58.9811 30.8491 58.4847 31.13 57.8641 31.2737V31.0451C58.5957 31.1692 59.1574 31.4435 59.5558 31.8746C59.9543 32.2992 60.1568 32.8544 60.1568 33.5402C60.1568 34.4415 59.8367 35.147 59.1966 35.6499C58.5565 36.1529 57.6747 36.4076 56.5513 36.4076H51.7048H51.7113ZM53.8602 30.4246H55.9961C56.5839 30.4246 57.015 30.3201 57.2959 30.1045C57.5768 29.8955 57.7139 29.5754 57.7139 29.1509C57.7139 28.7263 57.5768 28.4259 57.2959 28.2169C57.015 28.0078 56.5839 27.8968 55.9961 27.8968H53.8602V30.418V30.4246ZM53.8602 34.7355H56.2835C56.8387 34.7355 57.2698 34.631 57.5637 34.4154C57.8641 34.2064 58.0078 33.8668 58.0078 33.403C58.0078 32.9393 57.8576 32.5931 57.5637 32.3841C57.2698 32.1751 56.8387 32.0705 56.2835 32.0705H53.8602V34.7224V34.7355Z" fill="white"/>
<path d="M63.1874 36.4076V26.2443H65.4343V36.4076H63.1874Z" fill="white"/>
<path d="M68.563 36.4076V34.7485L73.9843 27.4265V28.0928H68.563V26.2508H76.1333V27.8968L70.6989 35.2188V34.5722H76.3357V36.4141H68.563V36.4076Z" fill="white"/>
<path d="M79.2488 36.4076V26.2443H80.921L86.4402 33.2658H86.0483V26.2443H88.1385V36.4076H86.4663L80.9601 29.386H81.3324V36.4076H79.2423H79.2488Z" fill="white"/>
<path d="M91.646 36.4076V26.2443H98.7067V27.9883H93.7884V30.3658H98.3606V32.1228H93.7884V34.6571H98.7067V36.4011H91.646V36.4076Z" fill="white"/>
<path d="M105.251 36.5643C104.435 36.5643 103.671 36.4664 102.959 36.2639C102.247 36.0614 101.639 35.7805 101.143 35.4278L101.809 33.6708C102.136 33.8929 102.482 34.0823 102.848 34.2325C103.214 34.3893 103.599 34.5069 104.004 34.5852C104.409 34.6636 104.833 34.7093 105.271 34.7093C105.963 34.7093 106.453 34.6048 106.747 34.3893C107.041 34.1803 107.185 33.9059 107.185 33.5794C107.185 33.2789 107.087 33.0503 106.891 32.8935C106.695 32.7368 106.336 32.5996 105.82 32.482L104.122 32.1359C103.187 31.9464 102.495 31.6199 102.031 31.1561C101.568 30.6924 101.339 30.0784 101.339 29.3142C101.339 28.661 101.515 28.0927 101.855 27.6159C102.201 27.1326 102.691 26.7603 103.318 26.4925C103.945 26.2247 104.683 26.0875 105.532 26.0875C106.251 26.0875 106.924 26.1855 107.551 26.388C108.178 26.5905 108.687 26.8779 109.092 27.2502L108.426 28.8961C108.034 28.5761 107.59 28.341 107.106 28.1842C106.623 28.0274 106.081 27.9491 105.487 27.9491C104.892 27.9491 104.383 28.0601 104.05 28.2822C103.717 28.5042 103.553 28.8047 103.553 29.1901C103.553 29.4775 103.651 29.7126 103.854 29.889C104.056 30.0653 104.409 30.209 104.918 30.3135L106.59 30.6466C107.544 30.8361 108.25 31.1626 108.707 31.6133C109.17 32.064 109.399 32.6649 109.399 33.4161C109.399 34.0496 109.229 34.6048 108.89 35.0751C108.55 35.5454 108.067 35.9112 107.446 36.179C106.826 36.4402 106.094 36.5774 105.245 36.5774L105.251 36.5643Z" fill="white"/>
<path d="M116.871 36.5643C115.382 36.5643 114.272 36.192 113.54 35.454C112.809 34.7159 112.443 33.612 112.443 32.1555V26.2443H114.69V32.1685C114.69 32.985 114.866 33.6055 115.219 34.0301C115.572 34.4546 116.12 34.6636 116.871 34.6636C117.622 34.6636 118.145 34.4546 118.504 34.0301C118.864 33.6055 119.046 32.985 119.046 32.1685V26.2443H121.267V32.1555C121.267 33.6186 120.901 34.7159 120.163 35.454C119.425 36.192 118.328 36.5643 116.871 36.5643Z" fill="white"/>
<path d="M17.2567 9.11822C23.3638 4.12148 27.0868 2.42325 27.0868 2.42325C27.0868 2.42325 20.6597 4.01045 18.9745 4.53951C13.3115 6.30307 9.48397 7.99477 5.87196 9.76485L5.17307 10.1045L5.93727 9.96081C10.6597 9.06597 11.2932 8.5369 13.8733 8.37361C9.55582 11.953 5.38208 18.6283 3.63812 25.049C3.63812 25.049 3.78182 24.7942 3.89939 24.6244C6.79292 20.3854 11.1561 14.1084 17.2632 9.11169L17.2567 9.11822Z" fill="white"/>
<path d="M29.0268 2.05748L34.8204 2.31221L34.5983 4.53952L40.8753 0C36.3423 0.457217 29.0268 2.05748 29.0268 2.05748Z" fill="white"/>
<path d="M27.4657 8.60222C25.3103 9.28152 23.2136 10.1241 21.228 11.2084C19.8694 11.9464 18.2038 13.096 14.8988 15.9961C8.9484 21.2214 4.51339 28.87 3.37688 30.8426C3.12867 29.5493 2.59961 27.3351 2.59961 27.3351C2.59961 27.3351 2.21424 28.4259 1.24755 32.0118C0.287395 35.5977 -0.00653076 40.0065 -0.00653076 40.0065C-0.00653076 40.0065 8.69367 24.0823 20.5879 16.695C20.5552 17.2567 20.5291 17.3285 20.5291 17.8968C20.5095 20.1306 20.7054 22.3579 21.1039 24.5265L21.1888 24.9902L21.3063 24.533C21.9791 21.9987 23.5663 18.3605 26.8517 13.5336C28.6741 10.8557 30.4637 8.88308 31.9856 7.3808L27.4592 8.60222H27.4657Z" fill="white"/>
</g>
<defs>
<clipPath id="clip0_3021_25532">
<rect width="187.139" height="40" fill="white"/>
</clipPath>
</defs>
</svg>
