<svg width="24" height="24" viewBox="0 0 24 24" fill="none" xmlns="http://www.w3.org/2000/svg">
<rect width="24" height="24" rx="12" fill="#0087FE" fill-opacity="0.1"/>
<path d="M10.3984 15.3047L7.13672 12.0625C7.04557 11.9713 7 11.8542 7 11.7109C7 11.5677 7.04557 11.4505 7.13672 11.3594L7.85937 10.6562C7.95052 10.5521 8.06445 10.5 8.20117 10.5C8.33789 10.5 8.45833 10.5521 8.5625 10.6562L10.75 12.8437L15.4375 8.15625C15.5416 8.05208 15.6621 8 15.7988 8C15.9355 8 16.0495 8.05208 16.1406 8.15625L16.8633 8.85937C16.9544 8.95052 17 9.06771 17 9.21093C17 9.35416 16.9544 9.47135 16.8633 9.5625L11.1016 15.3047C11.0104 15.4088 10.8932 15.4609 10.75 15.4609C10.6068 15.4609 10.4896 15.4088 10.3984 15.3047Z" fill="#0087FE"/>
</svg>
